# xmcd
#
# Track frame offsets:
#	150
#	21563
#	45179
#	63288
#	84051
#	104231
#	135547
#	150300
#	167279
#	187165
#
# Disc length: 2690 seconds
#
# Revision: 0
# Processed by: cddbd v1.5.1PL0 Copyright (c) Steve Scherf et al.
# Submitted via: dBpowerAMP V4.0
#
DISCID=740a800a
DTITLE=Norah Jones - Live At Heineken Music Hall [CD1]
DYEAR=2004
DGENRE=Blues
TTITLE0=Turn Me On
TTITLE1=Nightingale
TTITLE2=Sweet Words
TTITLE3=What Am I To You
TTITLE4=Something Is Calling You
TTITLE5=In The Morning
TTITLE6=Carnival Town
TTITLE7=Don't Miss You At All
TTITLE8=Painter Song
TTITLE9=The Long Way Home
EXTD=
EXTT0=
EXTT1=
EXTT2=
EXTT3=
EXTT4=
EXTT5=
EXTT6=
EXTT7=
EXTT8=
EXTT9=
PLAYORDER=
